<svg width="37" height="37" viewBox="0 0 37 37" fill="none" xmlns="http://www.w3.org/2000/svg">
<path fill-rule="evenodd" clip-rule="evenodd" d="M1.0797 3.90801C0.29866 4.68906 0.29863 5.95539 1.0797 6.73644L12.676 18.3327L1.0797 29.9291C0.29863 30.7101 0.29863 31.9764 1.0797 32.7575L3.908 35.5858C4.68907 36.3669 5.9554 36.3669 6.73643 35.5858L18.3327 23.9895L29.9291 35.5858C30.7101 36.3669 31.9764 36.3669 32.7575 35.5858L35.5858 32.7575C36.3669 31.9764 36.3669 30.7101 35.5858 29.9291L23.9895 18.3327L35.5858 6.73644C36.3669 5.95539 36.3668 4.68906 35.5858 3.90801L32.7575 1.07969C31.9764 0.298646 30.7101 0.298646 29.9291 1.07969L18.3327 12.676L6.73643 1.07969C5.9554 0.298646 4.68907 0.298646 3.908 1.07969L1.0797 3.90801Z" fill="#D9D9D9"/>
</svg>
